<mxfile host="app.diagrams.net" modified="2022-09-10T06:39:24.727Z" agent="5.0 (Macintosh; Intel Mac OS X 10_15_7) AppleWebKit/537.36 (KHTML, like Gecko) Chrome/105.0.0.0 Safari/537.36" etag="qLvl_3MMWRa2pfVzZLz4" version="20.3.0" type="github">
  <diagram name="Page-1" id="5f0bae14-7c28-e335-631c-24af17079c00">
    <mxGraphModel dx="2057" dy="1223" grid="1" gridSize="10" guides="1" tooltips="1" connect="1" arrows="1" fold="1" page="1" pageScale="1" pageWidth="1100" pageHeight="850" background="none" math="0" shadow="0">
      <root>
        <mxCell id="0" />
        <mxCell id="1" parent="0" />
        <mxCell id="39150e848f15840c-1" value="&lt;font style=&quot;font-size: 16px;&quot;&gt;&lt;b&gt;Server PC&lt;/b&gt;&lt;/font&gt;" style="verticalAlign=top;align=left;spacingTop=8;spacingLeft=2;spacingRight=12;shape=cube;size=10;direction=south;fontStyle=4;html=1;rounded=0;shadow=0;comic=0;labelBackgroundColor=none;strokeWidth=1;fontFamily=Verdana;fontSize=12" parent="1" vertex="1">
          <mxGeometry x="430" y="220" width="380" height="410" as="geometry" />
        </mxCell>
        <mxCell id="39150e848f15840c-2" value="&lt;b&gt;&lt;font style=&quot;font-size: 16px;&quot;&gt;User PC&lt;/font&gt;&lt;/b&gt;" style="verticalAlign=top;align=left;spacingTop=8;spacingLeft=2;spacingRight=12;shape=cube;size=10;direction=south;fontStyle=4;html=1;rounded=0;shadow=0;comic=0;labelBackgroundColor=none;strokeWidth=1;fontFamily=Verdana;fontSize=12" parent="1" vertex="1">
          <mxGeometry x="1000" y="660" width="360" height="310" as="geometry" />
        </mxCell>
        <mxCell id="F7XPx7EwxCSOAxeQfre4-5" value="&lt;b&gt;백신 엔진&lt;/b&gt;" style="ellipse;whiteSpace=wrap;html=1;rounded=0;shadow=0;comic=0;labelBackgroundColor=none;strokeWidth=1;fontFamily=Verdana;fontSize=12;align=center;" vertex="1" parent="1">
          <mxGeometry x="1010" y="700" width="330" height="150" as="geometry" />
        </mxCell>
        <mxCell id="F7XPx7EwxCSOAxeQfre4-1" value="- 요구사항&amp;nbsp;&lt;br&gt;&lt;ol&gt;&lt;li&gt;사용자가 문서파일을 여는 것을 검출&lt;/li&gt;&lt;li&gt;한번 분석한 파일은 다시 분석하지 않는다.&lt;/li&gt;&lt;li&gt;빠른시간안에 결과를 돌려준다.&lt;/li&gt;&lt;li&gt;새로운 업데이트를&amp;nbsp; 받아 항상 최신의 상태를 유지한다.&lt;/li&gt;&lt;li&gt;서버에서 전달하는 값은 Hash값만 전달한다.&lt;/li&gt;&lt;/ol&gt;" style="shape=note;whiteSpace=wrap;html=1;backgroundOutline=1;darkOpacity=0.05;align=left;" vertex="1" parent="1">
          <mxGeometry x="1060" y="40" width="300" height="140" as="geometry" />
        </mxCell>
        <mxCell id="F7XPx7EwxCSOAxeQfre4-2" value="&lt;font style=&quot;font-size: 16px;&quot;&gt;&lt;b&gt;Engine Build Server&lt;/b&gt;&lt;/font&gt;" style="verticalAlign=top;align=left;spacingTop=8;spacingLeft=2;spacingRight=12;shape=cube;size=10;direction=south;fontStyle=4;html=1;rounded=0;shadow=0;comic=0;labelBackgroundColor=none;strokeWidth=1;fontFamily=Verdana;fontSize=12" vertex="1" parent="1">
          <mxGeometry x="70" y="463.75" width="270" height="166.25" as="geometry" />
        </mxCell>
        <mxCell id="F7XPx7EwxCSOAxeQfre4-4" value="&lt;font style=&quot;font-size: 14px;&quot;&gt;DB&lt;/font&gt;" style="strokeWidth=2;html=1;shape=mxgraph.flowchart.database;whiteSpace=wrap;" vertex="1" parent="1">
          <mxGeometry x="1250" y="740" width="60" height="50" as="geometry" />
        </mxCell>
        <mxCell id="39150e848f15840c-6" value="정적 분석&lt;br&gt;엔진" style="ellipse;whiteSpace=wrap;html=1;rounded=0;shadow=0;comic=0;labelBackgroundColor=none;strokeWidth=1;fontFamily=Verdana;fontSize=12;align=center;" parent="1" vertex="1">
          <mxGeometry x="1020" y="733.75" width="70" height="62.5" as="geometry" />
        </mxCell>
        <mxCell id="F7XPx7EwxCSOAxeQfre4-7" value="문서형 파일&lt;br&gt;(악성, 일반)" style="rounded=0;whiteSpace=wrap;html=1;fontSize=14;" vertex="1" parent="1">
          <mxGeometry x="1115" y="890" width="120" height="60" as="geometry" />
        </mxCell>
        <mxCell id="F7XPx7EwxCSOAxeQfre4-8" value="" style="endArrow=classic;html=1;rounded=0;fontSize=14;entryX=0.5;entryY=1;entryDx=0;entryDy=0;exitX=0.5;exitY=0;exitDx=0;exitDy=0;" edge="1" parent="1" source="F7XPx7EwxCSOAxeQfre4-7" target="F7XPx7EwxCSOAxeQfre4-5">
          <mxGeometry width="50" height="50" relative="1" as="geometry">
            <mxPoint x="1120" y="870" as="sourcePoint" />
            <mxPoint x="1170" y="820" as="targetPoint" />
          </mxGeometry>
        </mxCell>
        <mxCell id="F7XPx7EwxCSOAxeQfre4-14" value="" style="endArrow=classic;html=1;rounded=0;fontSize=14;exitX=0.5;exitY=1;exitDx=0;exitDy=0;" edge="1" parent="1" source="F7XPx7EwxCSOAxeQfre4-5" target="F7XPx7EwxCSOAxeQfre4-4">
          <mxGeometry width="50" height="50" relative="1" as="geometry">
            <mxPoint x="1125" y="840" as="sourcePoint" />
            <mxPoint x="1175" y="790" as="targetPoint" />
            <Array as="points">
              <mxPoint x="1210" y="810" />
            </Array>
          </mxGeometry>
        </mxCell>
        <mxCell id="F7XPx7EwxCSOAxeQfre4-16" value="엔진이 파일을 검출" style="text;strokeColor=none;fillColor=none;spacingLeft=4;spacingRight=4;overflow=hidden;rotatable=0;points=[[0,0.5],[1,0.5]];portConstraint=eastwest;fontSize=12;" vertex="1" parent="1">
          <mxGeometry x="1180" y="860" width="100" height="20" as="geometry" />
        </mxCell>
        <mxCell id="F7XPx7EwxCSOAxeQfre4-17" value="문서 파일이 검사된적&#xa; 있는지 확인&#xa;" style="text;strokeColor=none;fillColor=none;spacingLeft=4;spacingRight=4;overflow=hidden;rotatable=0;points=[[0,0.5],[1,0.5]];portConstraint=eastwest;fontSize=12;" vertex="1" parent="1">
          <mxGeometry x="1220" y="796.25" width="100" height="33.75" as="geometry" />
        </mxCell>
        <mxCell id="F7XPx7EwxCSOAxeQfre4-18" value="" style="endArrow=classic;html=1;rounded=0;fontSize=14;exitX=0;exitY=0.15;exitDx=0;exitDy=0;exitPerimeter=0;entryX=0.964;entryY=0.204;entryDx=0;entryDy=0;entryPerimeter=0;" edge="1" parent="1" source="F7XPx7EwxCSOAxeQfre4-4" target="39150e848f15840c-6">
          <mxGeometry width="50" height="50" relative="1" as="geometry">
            <mxPoint x="900" y="810" as="sourcePoint" />
            <mxPoint x="950" y="760" as="targetPoint" />
          </mxGeometry>
        </mxCell>
        <mxCell id="F7XPx7EwxCSOAxeQfre4-19" value="정적 엔진에 분석 요청" style="text;strokeColor=none;fillColor=none;spacingLeft=4;spacingRight=4;overflow=hidden;rotatable=0;points=[[0,0.5],[1,0.5]];portConstraint=eastwest;fontSize=12;" vertex="1" parent="1">
          <mxGeometry x="1120" y="716.25" width="120" height="23.75" as="geometry" />
        </mxCell>
        <mxCell id="F7XPx7EwxCSOAxeQfre4-21" value="&lt;b&gt;분석 엔진&lt;/b&gt;" style="ellipse;whiteSpace=wrap;html=1;fontSize=14;" vertex="1" parent="1">
          <mxGeometry x="440" y="276.25" width="340" height="213.75" as="geometry" />
        </mxCell>
        <mxCell id="F7XPx7EwxCSOAxeQfre4-6" value="가상화 엔진" style="ellipse;whiteSpace=wrap;html=1;rounded=0;shadow=0;comic=0;labelBackgroundColor=none;strokeWidth=1;fontFamily=Verdana;fontSize=12;align=center;" vertex="1" parent="1">
          <mxGeometry x="650" y="390" width="105" height="70" as="geometry" />
        </mxCell>
        <mxCell id="F7XPx7EwxCSOAxeQfre4-22" value="업데이트 서버" style="ellipse;whiteSpace=wrap;html=1;rounded=0;shadow=0;comic=0;labelBackgroundColor=none;strokeWidth=1;fontFamily=Verdana;fontSize=12;align=center;" vertex="1" parent="1">
          <mxGeometry x="560" y="290" width="100" height="70" as="geometry" />
        </mxCell>
        <mxCell id="F7XPx7EwxCSOAxeQfre4-23" value="" style="endArrow=classic;html=1;rounded=0;fontSize=16;entryX=0.933;entryY=0.741;entryDx=0;entryDy=0;entryPerimeter=0;" edge="1" parent="1" source="39150e848f15840c-6" target="F7XPx7EwxCSOAxeQfre4-6">
          <mxGeometry width="50" height="50" relative="1" as="geometry">
            <mxPoint x="1010" y="550" as="sourcePoint" />
            <mxPoint x="690" y="360" as="targetPoint" />
          </mxGeometry>
        </mxCell>
        <mxCell id="F7XPx7EwxCSOAxeQfre4-24" value="분석 파일 전송" style="text;strokeColor=none;fillColor=none;spacingLeft=4;spacingRight=4;overflow=hidden;rotatable=0;points=[[0,0.5],[1,0.5]];portConstraint=eastwest;fontSize=12;" vertex="1" parent="1">
          <mxGeometry x="900" y="580" width="80" height="20" as="geometry" />
        </mxCell>
        <mxCell id="F7XPx7EwxCSOAxeQfre4-25" value="" style="endArrow=classic;html=1;rounded=0;fontSize=16;entryX=0;entryY=0.5;entryDx=0;entryDy=0;exitX=1;exitY=1;exitDx=0;exitDy=0;" edge="1" parent="1" source="F7XPx7EwxCSOAxeQfre4-6" target="39150e848f15840c-6">
          <mxGeometry width="50" height="50" relative="1" as="geometry">
            <mxPoint x="640" y="400" as="sourcePoint" />
            <mxPoint x="690" y="350" as="targetPoint" />
          </mxGeometry>
        </mxCell>
        <mxCell id="F7XPx7EwxCSOAxeQfre4-26" value="분석 결과 전송" style="text;strokeColor=none;fillColor=none;spacingLeft=4;spacingRight=4;overflow=hidden;rotatable=0;points=[[0,0.5],[1,0.5]];portConstraint=eastwest;fontSize=12;" vertex="1" parent="1">
          <mxGeometry x="850" y="660" width="80" height="20" as="geometry" />
        </mxCell>
        <mxCell id="F7XPx7EwxCSOAxeQfre4-27" value="DB" style="strokeWidth=2;html=1;shape=mxgraph.flowchart.database;whiteSpace=wrap;fontSize=16;" vertex="1" parent="1">
          <mxGeometry x="480" y="395" width="60" height="60" as="geometry" />
        </mxCell>
        <mxCell id="F7XPx7EwxCSOAxeQfre4-28" value="" style="endArrow=classic;html=1;rounded=0;fontSize=16;entryX=1;entryY=0.5;entryDx=0;entryDy=0;entryPerimeter=0;exitX=0;exitY=0.5;exitDx=0;exitDy=0;" edge="1" parent="1" source="F7XPx7EwxCSOAxeQfre4-6" target="F7XPx7EwxCSOAxeQfre4-27">
          <mxGeometry width="50" height="50" relative="1" as="geometry">
            <mxPoint x="670" y="480" as="sourcePoint" />
            <mxPoint x="720" y="430" as="targetPoint" />
          </mxGeometry>
        </mxCell>
        <mxCell id="F7XPx7EwxCSOAxeQfre4-29" value="분석 파일 Hash 값과 결과 저장" style="text;strokeColor=none;fillColor=none;spacingLeft=4;spacingRight=4;overflow=hidden;rotatable=0;points=[[0,0.5],[1,0.5]];portConstraint=eastwest;fontSize=12;" vertex="1" parent="1">
          <mxGeometry x="525" y="455" width="170" height="20" as="geometry" />
        </mxCell>
        <mxCell id="F7XPx7EwxCSOAxeQfre4-32" value="Jenkins" style="ellipse;whiteSpace=wrap;html=1;fontSize=16;" vertex="1" parent="1">
          <mxGeometry x="140" y="510" width="110" height="50" as="geometry" />
        </mxCell>
        <mxCell id="F7XPx7EwxCSOAxeQfre4-33" value="Git" style="ellipse;whiteSpace=wrap;html=1;fontSize=16;" vertex="1" parent="1">
          <mxGeometry x="140" y="570" width="110" height="50" as="geometry" />
        </mxCell>
        <mxCell id="F7XPx7EwxCSOAxeQfre4-34" value="" style="ellipse;whiteSpace=wrap;html=1;fontSize=16;" vertex="1" parent="1">
          <mxGeometry x="525" y="506.88" width="190" height="103.12" as="geometry" />
        </mxCell>
      </root>
    </mxGraphModel>
  </diagram>
</mxfile>
